<mxfile host="app.diagrams.net" modified="2022-06-26T07:33:47.866Z" agent="5.0 (Macintosh; Intel Mac OS X 10_15_7) AppleWebKit/537.36 (KHTML, like Gecko) Chrome/102.0.0.0 Safari/537.36" etag="Fd92n3VLOzVmyKbUIhNi" version="18.1.1" type="github">
  <diagram id="5sDhBoR40etGfVMns5cI" name="第 1 页">
    <mxGraphModel dx="1219" dy="682" grid="0" gridSize="10" guides="1" tooltips="1" connect="1" arrows="1" fold="1" page="1" pageScale="1" pageWidth="827" pageHeight="1169" math="0" shadow="0">
      <root>
        <mxCell id="0" />
        <mxCell id="1" parent="0" />
        <mxCell id="vX8E_Xi7zT2t8H5QPPaL-1" value="乔布斯" style="rounded=1;whiteSpace=wrap;html=1;fontSize=24;fillColor=#d5e8d4;strokeColor=#82b366;" vertex="1" parent="1">
          <mxGeometry x="300" y="410" width="120" height="60" as="geometry" />
        </mxCell>
        <mxCell id="vX8E_Xi7zT2t8H5QPPaL-3" style="edgeStyle=orthogonalEdgeStyle;rounded=0;orthogonalLoop=1;jettySize=auto;html=1;fontSize=12;" edge="1" parent="1" source="vX8E_Xi7zT2t8H5QPPaL-2" target="vX8E_Xi7zT2t8H5QPPaL-1">
          <mxGeometry relative="1" as="geometry" />
        </mxCell>
        <mxCell id="vX8E_Xi7zT2t8H5QPPaL-2" value="&lt;span style=&quot;font-family: 宋体, arial; text-align: start;&quot;&gt;&lt;span style=&quot;font-size: 17px;&quot;&gt;妻子2&lt;/span&gt;&lt;br&gt;&lt;font style=&quot;font-size: 12px;&quot;&gt;劳伦·鲍威尔&lt;/font&gt;&lt;/span&gt;" style="rounded=0;whiteSpace=wrap;html=1;fontSize=24;fillColor=#dae8fc;strokeColor=#6c8ebf;" vertex="1" parent="1">
          <mxGeometry x="480" y="410" width="120" height="60" as="geometry" />
        </mxCell>
        <mxCell id="vX8E_Xi7zT2t8H5QPPaL-5" style="edgeStyle=orthogonalEdgeStyle;rounded=0;orthogonalLoop=1;jettySize=auto;html=1;fontSize=12;" edge="1" parent="1" source="vX8E_Xi7zT2t8H5QPPaL-4" target="vX8E_Xi7zT2t8H5QPPaL-2">
          <mxGeometry relative="1" as="geometry" />
        </mxCell>
        <mxCell id="vX8E_Xi7zT2t8H5QPPaL-4" value="&lt;span style=&quot;font-family: 宋体, arial; text-align: start;&quot;&gt;&lt;span style=&quot;font-size: 17px;&quot;&gt;第二&lt;/span&gt;&lt;br&gt;&lt;font style=&quot;font-size: 12px;&quot;&gt;埃琳·乔布斯&lt;/font&gt;&lt;/span&gt;" style="rounded=0;whiteSpace=wrap;html=1;fontSize=24;fillColor=#fff2cc;strokeColor=#d6b656;" vertex="1" parent="1">
          <mxGeometry x="660" y="410" width="140" height="60" as="geometry" />
        </mxCell>
        <mxCell id="vX8E_Xi7zT2t8H5QPPaL-7" style="edgeStyle=orthogonalEdgeStyle;rounded=0;orthogonalLoop=1;jettySize=auto;html=1;entryX=1;entryY=0.5;entryDx=0;entryDy=0;fontSize=12;" edge="1" parent="1" source="vX8E_Xi7zT2t8H5QPPaL-6" target="vX8E_Xi7zT2t8H5QPPaL-2">
          <mxGeometry relative="1" as="geometry" />
        </mxCell>
        <mxCell id="vX8E_Xi7zT2t8H5QPPaL-6" value="&lt;span style=&quot;font-family: 宋体, arial; text-align: start;&quot;&gt;&lt;span style=&quot;font-size: 17px;&quot;&gt;第三&lt;/span&gt;&lt;br&gt;&lt;font style=&quot;font-size: 12px;&quot;&gt;伊芙·乔布斯&lt;/font&gt;&lt;/span&gt;" style="rounded=0;whiteSpace=wrap;html=1;fontSize=24;fillColor=#fff2cc;strokeColor=#d6b656;" vertex="1" parent="1">
          <mxGeometry x="660" y="480" width="140" height="60" as="geometry" />
        </mxCell>
        <mxCell id="vX8E_Xi7zT2t8H5QPPaL-11" style="edgeStyle=orthogonalEdgeStyle;rounded=0;orthogonalLoop=1;jettySize=auto;html=1;fontSize=12;" edge="1" parent="1" source="vX8E_Xi7zT2t8H5QPPaL-8" target="vX8E_Xi7zT2t8H5QPPaL-1">
          <mxGeometry relative="1" as="geometry">
            <Array as="points">
              <mxPoint x="180" y="360" />
              <mxPoint x="360" y="360" />
            </Array>
          </mxGeometry>
        </mxCell>
        <mxCell id="vX8E_Xi7zT2t8H5QPPaL-16" style="edgeStyle=orthogonalEdgeStyle;rounded=0;orthogonalLoop=1;jettySize=auto;html=1;fontSize=12;" edge="1" parent="1" source="vX8E_Xi7zT2t8H5QPPaL-8" target="vX8E_Xi7zT2t8H5QPPaL-14">
          <mxGeometry relative="1" as="geometry" />
        </mxCell>
        <mxCell id="vX8E_Xi7zT2t8H5QPPaL-8" value="&lt;span style=&quot;font-family: 宋体, arial; text-align: start;&quot;&gt;&lt;font style=&quot;font-size: 24px;&quot;&gt;父亲&lt;/font&gt;&lt;br style=&quot;font-size: 12px;&quot;&gt;&lt;/span&gt;&lt;span style=&quot;font-family: 宋体, arial; text-align: start; font-size: 12px;&quot;&gt;&lt;font style=&quot;font-size: 12px;&quot;&gt;保罗·莱因霍尔德·乔布斯&lt;/font&gt;&lt;/span&gt;" style="rounded=0;whiteSpace=wrap;html=1;fontSize=12;" vertex="1" parent="1">
          <mxGeometry x="110" y="250" width="140" height="60" as="geometry" />
        </mxCell>
        <mxCell id="vX8E_Xi7zT2t8H5QPPaL-12" style="edgeStyle=orthogonalEdgeStyle;rounded=0;orthogonalLoop=1;jettySize=auto;html=1;fontSize=12;" edge="1" parent="1" source="vX8E_Xi7zT2t8H5QPPaL-10" target="vX8E_Xi7zT2t8H5QPPaL-1">
          <mxGeometry relative="1" as="geometry" />
        </mxCell>
        <mxCell id="vX8E_Xi7zT2t8H5QPPaL-10" value="&lt;span style=&quot;font-family: 宋体, arial; text-align: start;&quot;&gt;&lt;font style=&quot;font-size: 24px;&quot;&gt;母亲&lt;/font&gt;&lt;br style=&quot;font-size: 12px;&quot;&gt;&lt;/span&gt;&lt;span style=&quot;font-family: 宋体, arial; text-align: start;&quot;&gt;&lt;font style=&quot;font-size: 12px;&quot;&gt;克拉拉·哈戈皮安·乔布斯&lt;/font&gt;&lt;/span&gt;" style="rounded=0;whiteSpace=wrap;html=1;fontSize=12;" vertex="1" parent="1">
          <mxGeometry x="350" y="250" width="140" height="60" as="geometry" />
        </mxCell>
        <mxCell id="vX8E_Xi7zT2t8H5QPPaL-15" style="edgeStyle=orthogonalEdgeStyle;rounded=0;orthogonalLoop=1;jettySize=auto;html=1;fontSize=12;" edge="1" parent="1" source="vX8E_Xi7zT2t8H5QPPaL-14" target="vX8E_Xi7zT2t8H5QPPaL-1">
          <mxGeometry relative="1" as="geometry" />
        </mxCell>
        <mxCell id="vX8E_Xi7zT2t8H5QPPaL-14" value="&lt;span style=&quot;font-family: 宋体, arial; text-align: start;&quot;&gt;&lt;span style=&quot;font-size: 24px;&quot;&gt;妹妹&lt;/span&gt;&lt;br style=&quot;font-size: 12px;&quot;&gt;&lt;/span&gt;&lt;span style=&quot;font-family: 宋体, arial; text-align: start;&quot;&gt;&lt;font style=&quot;font-size: 12px;&quot;&gt;帕蒂·乔布斯&lt;/font&gt;&lt;/span&gt;" style="rounded=0;whiteSpace=wrap;html=1;fontSize=12;" vertex="1" parent="1">
          <mxGeometry x="110" y="410" width="140" height="60" as="geometry" />
        </mxCell>
        <mxCell id="vX8E_Xi7zT2t8H5QPPaL-17" value="领养" style="text;html=1;align=center;verticalAlign=middle;resizable=0;points=[];autosize=1;strokeColor=none;fillColor=none;fontSize=12;" vertex="1" parent="1">
          <mxGeometry x="180" y="330" width="40" height="20" as="geometry" />
        </mxCell>
        <mxCell id="vX8E_Xi7zT2t8H5QPPaL-23" style="edgeStyle=orthogonalEdgeStyle;rounded=0;orthogonalLoop=1;jettySize=auto;html=1;entryX=1;entryY=0.5;entryDx=0;entryDy=0;fontSize=12;" edge="1" parent="1" source="vX8E_Xi7zT2t8H5QPPaL-18" target="vX8E_Xi7zT2t8H5QPPaL-2">
          <mxGeometry relative="1" as="geometry" />
        </mxCell>
        <mxCell id="vX8E_Xi7zT2t8H5QPPaL-18" value="&lt;span style=&quot;font-family: 宋体, arial; text-align: start;&quot;&gt;&lt;span style=&quot;font-size: 17px;&quot;&gt;长子&lt;/span&gt;&lt;br&gt;&lt;font style=&quot;font-size: 12px;&quot;&gt;里德·乔布斯&lt;/font&gt;&lt;/span&gt;" style="rounded=0;whiteSpace=wrap;html=1;fontSize=24;fillColor=#fff2cc;strokeColor=#d6b656;" vertex="1" parent="1">
          <mxGeometry x="660" y="340" width="140" height="60" as="geometry" />
        </mxCell>
        <mxCell id="vX8E_Xi7zT2t8H5QPPaL-22" style="edgeStyle=orthogonalEdgeStyle;rounded=0;orthogonalLoop=1;jettySize=auto;html=1;fontSize=12;" edge="1" parent="1" source="vX8E_Xi7zT2t8H5QPPaL-19" target="vX8E_Xi7zT2t8H5QPPaL-1">
          <mxGeometry relative="1" as="geometry">
            <Array as="points">
              <mxPoint x="450" y="360" />
              <mxPoint x="450" y="440" />
            </Array>
          </mxGeometry>
        </mxCell>
        <mxCell id="vX8E_Xi7zT2t8H5QPPaL-19" value="&lt;span style=&quot;font-family: 宋体, arial; text-align: start;&quot;&gt;&lt;span style=&quot;font-size: 17px;&quot;&gt;妻子1&lt;/span&gt;&lt;br&gt;&lt;/span&gt;&lt;span style=&quot;color: rgb(18, 18, 18); font-family: -apple-system, &amp;quot;system-ui&amp;quot;, &amp;quot;Helvetica Neue&amp;quot;, &amp;quot;PingFang SC&amp;quot;, &amp;quot;Microsoft YaHei&amp;quot;, &amp;quot;Source Han Sans SC&amp;quot;, &amp;quot;Noto Sans CJK SC&amp;quot;, &amp;quot;WenQuanYi Micro Hei&amp;quot;, sans-serif; text-align: start;&quot;&gt;&lt;font style=&quot;font-size: 12px;&quot;&gt;布伦南&lt;/font&gt;&lt;/span&gt;&lt;span style=&quot;font-family: 宋体, arial; text-align: start;&quot;&gt;&lt;br&gt;&lt;/span&gt;" style="rounded=0;whiteSpace=wrap;html=1;fontSize=24;fillColor=#dae8fc;strokeColor=#6c8ebf;" vertex="1" parent="1">
          <mxGeometry x="480" y="330" width="120" height="60" as="geometry" />
        </mxCell>
        <mxCell id="vX8E_Xi7zT2t8H5QPPaL-24" style="edgeStyle=orthogonalEdgeStyle;rounded=0;orthogonalLoop=1;jettySize=auto;html=1;fontSize=12;" edge="1" parent="1" source="vX8E_Xi7zT2t8H5QPPaL-20" target="vX8E_Xi7zT2t8H5QPPaL-19">
          <mxGeometry relative="1" as="geometry" />
        </mxCell>
        <mxCell id="vX8E_Xi7zT2t8H5QPPaL-20" value="&lt;span style=&quot;font-family: 宋体, arial; text-align: start;&quot;&gt;&lt;span style=&quot;font-size: 17px;&quot;&gt;长女&lt;/span&gt;&lt;br&gt;&lt;/span&gt;&lt;span style=&quot;color: rgb(18, 18, 18); font-family: -apple-system, &amp;quot;system-ui&amp;quot;, &amp;quot;Helvetica Neue&amp;quot;, &amp;quot;PingFang SC&amp;quot;, &amp;quot;Microsoft YaHei&amp;quot;, &amp;quot;Source Han Sans SC&amp;quot;, &amp;quot;Noto Sans CJK SC&amp;quot;, &amp;quot;WenQuanYi Micro Hei&amp;quot;, sans-serif; text-align: start;&quot;&gt;&lt;font style=&quot;font-size: 12px;&quot;&gt;丽萨&lt;/font&gt;&lt;/span&gt;&lt;span style=&quot;font-family: 宋体, arial; text-align: start;&quot;&gt;&lt;br&gt;&lt;/span&gt;" style="rounded=0;whiteSpace=wrap;html=1;fontSize=24;fillColor=#fff2cc;strokeColor=#d6b656;" vertex="1" parent="1">
          <mxGeometry x="660" y="270" width="140" height="60" as="geometry" />
        </mxCell>
        <mxCell id="vX8E_Xi7zT2t8H5QPPaL-26" style="edgeStyle=orthogonalEdgeStyle;rounded=0;orthogonalLoop=1;jettySize=auto;html=1;fontSize=12;" edge="1" parent="1" source="vX8E_Xi7zT2t8H5QPPaL-25" target="vX8E_Xi7zT2t8H5QPPaL-1">
          <mxGeometry relative="1" as="geometry" />
        </mxCell>
        <mxCell id="vX8E_Xi7zT2t8H5QPPaL-25" value="&lt;span style=&quot;font-family: 宋体, arial; text-align: start;&quot;&gt;&lt;font style=&quot;font-size: 24px;&quot;&gt;生母&lt;/font&gt;&lt;br style=&quot;font-size: 12px;&quot;&gt;&lt;/span&gt;&lt;span style=&quot;font-family: 宋体, arial; text-align: start;&quot;&gt;&lt;font style=&quot;font-size: 12px;&quot;&gt;乔安妮·席贝尔·钱德里·辛普森&lt;/font&gt;&lt;/span&gt;&lt;span style=&quot;font-family: 宋体, arial; text-align: start;&quot;&gt;&lt;font style=&quot;font-size: 12px;&quot;&gt;&lt;br&gt;&lt;/font&gt;&lt;/span&gt;" style="rounded=0;whiteSpace=wrap;html=1;fontSize=12;" vertex="1" parent="1">
          <mxGeometry x="370" y="585" width="140" height="70" as="geometry" />
        </mxCell>
        <mxCell id="vX8E_Xi7zT2t8H5QPPaL-31" style="edgeStyle=orthogonalEdgeStyle;rounded=0;orthogonalLoop=1;jettySize=auto;html=1;fontSize=12;" edge="1" parent="1" source="vX8E_Xi7zT2t8H5QPPaL-27" target="vX8E_Xi7zT2t8H5QPPaL-1">
          <mxGeometry relative="1" as="geometry">
            <Array as="points">
              <mxPoint x="270" y="520" />
              <mxPoint x="270" y="440" />
            </Array>
          </mxGeometry>
        </mxCell>
        <mxCell id="vX8E_Xi7zT2t8H5QPPaL-32" style="edgeStyle=orthogonalEdgeStyle;rounded=0;orthogonalLoop=1;jettySize=auto;html=1;entryX=0;entryY=0.5;entryDx=0;entryDy=0;fontSize=12;" edge="1" parent="1" source="vX8E_Xi7zT2t8H5QPPaL-27" target="vX8E_Xi7zT2t8H5QPPaL-29">
          <mxGeometry relative="1" as="geometry" />
        </mxCell>
        <mxCell id="vX8E_Xi7zT2t8H5QPPaL-27" value="&lt;span style=&quot;font-family: 宋体, arial; text-align: start;&quot;&gt;&lt;span style=&quot;font-size: 24px;&quot;&gt;亲妹妹&lt;/span&gt;&lt;br style=&quot;font-size: 12px;&quot;&gt;&lt;/span&gt;&lt;span style=&quot;font-family: 宋体, arial; text-align: start;&quot;&gt;&lt;font style=&quot;font-size: 12px;&quot;&gt;莫娜·辛普森&lt;/font&gt;&lt;/span&gt;" style="rounded=0;whiteSpace=wrap;html=1;fontSize=12;" vertex="1" parent="1">
          <mxGeometry x="110" y="490" width="140" height="60" as="geometry" />
        </mxCell>
        <mxCell id="vX8E_Xi7zT2t8H5QPPaL-30" style="edgeStyle=orthogonalEdgeStyle;rounded=0;orthogonalLoop=1;jettySize=auto;html=1;fontSize=12;" edge="1" parent="1" source="vX8E_Xi7zT2t8H5QPPaL-29" target="vX8E_Xi7zT2t8H5QPPaL-1">
          <mxGeometry relative="1" as="geometry" />
        </mxCell>
        <mxCell id="vX8E_Xi7zT2t8H5QPPaL-29" value="&lt;span style=&quot;font-family: 宋体, arial; text-align: start;&quot;&gt;&lt;font style=&quot;font-size: 24px;&quot;&gt;生父&lt;/font&gt;&lt;br style=&quot;font-size: 12px;&quot;&gt;&lt;/span&gt;&lt;span style=&quot;font-family: 宋体, arial; text-align: start;&quot;&gt;&lt;font style=&quot;font-size: 12px;&quot;&gt;约翰”阿卜杜勒法塔赫·钱德里&lt;/font&gt;&lt;/span&gt;&lt;span style=&quot;font-family: 宋体, arial; text-align: start;&quot;&gt;&lt;font style=&quot;font-size: 12px;&quot;&gt;&lt;br&gt;&lt;/font&gt;&lt;/span&gt;" style="rounded=0;whiteSpace=wrap;html=1;fontSize=12;" vertex="1" parent="1">
          <mxGeometry x="210" y="585" width="140" height="70" as="geometry" />
        </mxCell>
      </root>
    </mxGraphModel>
  </diagram>
</mxfile>
